<svg id="visual" viewBox="0 0 900 600" width="900" height="600" xmlns="http://www.w3.org/2000/svg" xmlns:xlink="http://www.w3.org/1999/xlink" version="1.1"><rect x="0" y="0" width="900" height="600" fill="#001220"></rect><path d="M0 392L21.5 390.5C43 389 86 386 128.8 395.3C171.7 404.7 214.3 426.3 257.2 428.3C300 430.3 343 412.7 385.8 412.7C428.7 412.7 471.3 430.3 514.2 428C557 425.7 600 403.3 642.8 401.2C685.7 399 728.3 417 771.2 420.3C814 423.7 857 412.3 878.5 406.7L900 401L900 601L878.5 601C857 601 814 601 771.2 601C728.3 601 685.7 601 642.8 601C600 601 557 601 514.2 601C471.3 601 428.7 601 385.8 601C343 601 300 601 257.2 601C214.3 601 171.7 601 128.8 601C86 601 43 601 21.5 601L0 601Z" fill="#83fa69"></path><path d="M0 417L21.5 426.3C43 435.7 86 454.3 128.8 453C171.7 451.7 214.3 430.3 257.2 418.5C300 406.7 343 404.3 385.8 412.3C428.7 420.3 471.3 438.7 514.2 447.8C557 457 600 457 642.8 460.3C685.7 463.7 728.3 470.3 771.2 473.3C814 476.3 857 475.7 878.5 475.3L900 475L900 601L878.5 601C857 601 814 601 771.2 601C728.3 601 685.7 601 642.8 601C600 601 557 601 514.2 601C471.3 601 428.7 601 385.8 601C343 601 300 601 257.2 601C214.3 601 171.7 601 128.8 601C86 601 43 601 21.5 601L0 601Z" fill="#5be173"></path><path d="M0 473L21.5 475.7C43 478.3 86 483.7 128.8 484.5C171.7 485.3 214.3 481.7 257.2 477.2C300 472.7 343 467.3 385.8 466.5C428.7 465.7 471.3 469.3 514.2 468.7C557 468 600 463 642.8 457C685.7 451 728.3 444 771.2 445.3C814 446.7 857 456.3 878.5 461.2L900 466L900 601L878.5 601C857 601 814 601 771.2 601C728.3 601 685.7 601 642.8 601C600 601 557 601 514.2 601C471.3 601 428.7 601 385.8 601C343 601 300 601 257.2 601C214.3 601 171.7 601 128.8 601C86 601 43 601 21.5 601L0 601Z" fill="#36c878"></path><path d="M0 481L21.5 481C43 481 86 481 128.8 485C171.7 489 214.3 497 257.2 502.3C300 507.7 343 510.3 385.8 515.8C428.7 521.3 471.3 529.7 514.2 524.8C557 520 600 502 642.8 500C685.7 498 728.3 512 771.2 515.8C814 519.7 857 513.3 878.5 510.2L900 507L900 601L878.5 601C857 601 814 601 771.2 601C728.3 601 685.7 601 642.8 601C600 601 557 601 514.2 601C471.3 601 428.7 601 385.8 601C343 601 300 601 257.2 601C214.3 601 171.7 601 128.8 601C86 601 43 601 21.5 601L0 601Z" fill="#14ae78"></path><path d="M0 544L21.5 541.3C43 538.7 86 533.3 128.8 537C171.7 540.7 214.3 553.3 257.2 553.7C300 554 343 542 385.8 537.8C428.7 533.7 471.3 537.3 514.2 541C557 544.7 600 548.3 642.8 549.2C685.7 550 728.3 548 771.2 547.2C814 546.3 857 546.7 878.5 546.8L900 547L900 601L878.5 601C857 601 814 601 771.2 601C728.3 601 685.7 601 642.8 601C600 601 557 601 514.2 601C471.3 601 428.7 601 385.8 601C343 601 300 601 257.2 601C214.3 601 171.7 601 128.8 601C86 601 43 601 21.5 601L0 601Z" fill="#009473"></path></svg>