<svg id="visual" viewBox="0 0 960 300" width="960" height="300" xmlns="http://www.w3.org/2000/svg" xmlns:xlink="http://www.w3.org/1999/xlink" version="1.1"><rect x="0" y="0" width="960" height="300" fill="#001220"></rect><path d="M0 119L14.5 117.7C29 116.3 58 113.7 87.2 122.8C116.3 132 145.7 153 174.8 164.8C204 176.7 233 179.3 262 181.5C291 183.7 320 185.3 349 180.3C378 175.3 407 163.7 436.2 163.7C465.3 163.7 494.7 175.3 523.8 177.7C553 180 582 173 611 162.2C640 151.3 669 136.7 698 136.8C727 137 756 152 785.2 158.7C814.3 165.3 843.7 163.7 872.8 151.8C902 140 931 118 945.5 107L960 96L960 301L945.5 301C931 301 902 301 872.8 301C843.7 301 814.3 301 785.2 301C756 301 727 301 698 301C669 301 640 301 611 301C582 301 553 301 523.8 301C494.7 301 465.3 301 436.2 301C407 301 378 301 349 301C320 301 291 301 262 301C233 301 204 301 174.8 301C145.7 301 116.3 301 87.2 301C58 301 29 301 14.5 301L0 301Z" fill="#fa7268"></path><path d="M0 166L14.5 165.2C29 164.3 58 162.7 87.2 166C116.3 169.3 145.7 177.7 174.8 181C204 184.3 233 182.7 262 186.3C291 190 320 199 349 200.8C378 202.7 407 197.3 436.2 196.2C465.3 195 494.7 198 523.8 195.5C553 193 582 185 611 186.5C640 188 669 199 698 196.3C727 193.7 756 177.3 785.2 166.7C814.3 156 843.7 151 872.8 148.7C902 146.3 931 146.7 945.5 146.8L960 147L960 301L945.5 301C931 301 902 301 872.8 301C843.7 301 814.3 301 785.2 301C756 301 727 301 698 301C669 301 640 301 611 301C582 301 553 301 523.8 301C494.7 301 465.3 301 436.2 301C407 301 378 301 349 301C320 301 291 301 262 301C233 301 204 301 174.8 301C145.7 301 116.3 301 87.2 301C58 301 29 301 14.5 301L0 301Z" fill="#eb5967"></path><path d="M0 239L14.5 236.5C29 234 58 229 87.2 221.2C116.3 213.3 145.7 202.7 174.8 197.7C204 192.7 233 193.3 262 200.2C291 207 320 220 349 226.7C378 233.3 407 233.7 436.2 232.3C465.3 231 494.7 228 523.8 229.5C553 231 582 237 611 240.7C640 244.3 669 245.7 698 238.8C727 232 756 217 785.2 215.7C814.3 214.3 843.7 226.7 872.8 232C902 237.3 931 235.7 945.5 234.8L960 234L960 301L945.5 301C931 301 902 301 872.8 301C843.7 301 814.3 301 785.2 301C756 301 727 301 698 301C669 301 640 301 611 301C582 301 553 301 523.8 301C494.7 301 465.3 301 436.2 301C407 301 378 301 349 301C320 301 291 301 262 301C233 301 204 301 174.8 301C145.7 301 116.3 301 87.2 301C58 301 29 301 14.5 301L0 301Z" fill="#da3f67"></path><path d="M0 251L14.5 247.8C29 244.7 58 238.3 87.2 235.8C116.3 233.3 145.7 234.7 174.8 234C204 233.3 233 230.7 262 230.2C291 229.7 320 231.3 349 238.7C378 246 407 259 436.2 259.8C465.3 260.7 494.7 249.3 523.8 242.7C553 236 582 234 611 237.3C640 240.7 669 249.3 698 251C727 252.7 756 247.3 785.2 250C814.3 252.7 843.7 263.3 872.8 260.7C902 258 931 242 945.5 234L960 226L960 301L945.5 301C931 301 902 301 872.8 301C843.7 301 814.3 301 785.2 301C756 301 727 301 698 301C669 301 640 301 611 301C582 301 553 301 523.8 301C494.7 301 465.3 301 436.2 301C407 301 378 301 349 301C320 301 291 301 262 301C233 301 204 301 174.8 301C145.7 301 116.3 301 87.2 301C58 301 29 301 14.5 301L0 301Z" fill="#c62368"></path></svg>