<svg id="visual" viewBox="0 0 900 600" preserveAspectRatio="none" width="900" height="600" xmlns="http://www.w3.org/2000/svg" xmlns:xlink="http://www.w3.org/1999/xlink" version="1.1"><path d="M0 175L30 179C60 183 120 191 180 196C240 201 300 203 360 185C420 167 480 129 540 140C600 151 660 211 720 217C780 223 840 175 870 151L900 127L900 0L870 0C840 0 780 0 720 0C660 0 600 0 540 0C480 0 420 0 360 0C300 0 240 0 180 0C120 0 60 0 30 0L0 0Z" fill="#83fa69"></path><path d="M0 475L30 481C60 487 120 499 180 481C240 463 300 415 360 370C420 325 480 283 540 290C600 297 660 353 720 358C780 363 840 317 870 294L900 271L900 125L870 149C840 173 780 221 720 215C660 209 600 149 540 138C480 127 420 165 360 183C300 201 240 199 180 194C120 189 60 181 30 177L0 173Z" fill="#66e060"></path><path d="M0 499L30 505C60 511 120 523 180 516C240 509 300 483 360 447C420 411 480 365 540 366C600 367 660 415 720 428C780 441 840 419 870 408L900 397L900 269L870 292C840 315 780 361 720 356C660 351 600 295 540 288C480 281 420 323 360 368C300 413 240 461 180 479C120 497 60 485 30 479L0 473Z" fill="#4ac657"></path><path d="M0 541L30 545C60 549 120 557 180 556C240 555 300 545 360 525C420 505 480 475 540 475C600 475 660 505 720 517C780 529 840 523 870 520L900 517L900 395L870 406C840 417 780 439 720 426C660 413 600 365 540 364C480 363 420 409 360 445C300 481 240 507 180 514C120 521 60 509 30 503L0 497Z" fill="#2dad4d"></path><path d="M0 601L30 601C60 601 120 601 180 601C240 601 300 601 360 601C420 601 480 601 540 601C600 601 660 601 720 601C780 601 840 601 870 601L900 601L900 515L870 518C840 521 780 527 720 515C660 503 600 473 540 473C480 473 420 503 360 523C300 543 240 553 180 554C120 555 60 547 30 543L0 539Z" fill="#009443"></path></svg>